<svg xmlns="http://www.w3.org/2000/svg" viewBox="0 0 89.76 89.76"><defs><style>.cls-1{fill:#00b69f;}</style></defs><g id="Layer_2" data-name="Layer 2"><g id="Layer_1-2" data-name="Layer 1"><path class="cls-1" d="M61.1,42c-5.22,0-5.94,5.2-5.94,5.2H66.25S66.33,42,61.1,42Z"/><path class="cls-1" d="M35.91,47.22H26.08v9.05h9.34c1.4,0,4-.44,4-4.39C39.48,47.19,35.91,47.22,35.91,47.22Z"/><path class="cls-1" d="M38.3,38c0-3.52-2.39-3.52-2.39-3.52H26.08V42H35.3C36.9,42,38.3,41.51,38.3,38Z"/><path class="cls-1" d="M44.88,0A44.88,44.88,0,1,0,89.76,44.88,44.88,44.88,0,0,0,44.88,0ZM53.7,30.46h14v4.16h-14Zm-7,21.83c0,10.32-10.75,10-10.75,10H18.33V28.47H35.91c5.35,0,9.56,3,9.56,9s-5.15,6.43-5.15,6.43C47.12,43.9,46.66,52.29,46.66,52.29Zm26.07-.54H55.23c0,6.27,5.93,5.87,5.93,5.87,5.63,0,5.43-3.64,5.43-3.64h5.94c0,9.66-11.56,9-11.56,9C47.1,63,48,50.05,48,50.05s0-13,13-13C74.66,37.07,72.73,51.75,72.73,51.75Z"/></g></g></svg>