<svg id="Capa_1" enable-background="new 0 0 512 512" height="512" viewBox="0 0 512 512" width="512" xmlns="http://www.w3.org/2000/svg"><g><path d="m58.647 406.874c-3.587 2.356-8.407 1.529-10.906-1.96-30.052-41.953-47.741-93.363-47.741-148.904 0-141.38 114.615-255.99 255.999-255.991 141.275 0 256.329 115.329 256 256.598-.198 85.005-41.829 160.276-105.768 206.69-1.956 1.42-4.69 1.089-6.188-.808-46.882-59.381-119.511-97.494-201.043-97.494-51.823 0-100.049 15.399-140.353 41.869z" fill="#ffb52d"/><path d="m407.183 65.185-.183 195.918v201.645c-11.096 8.118-22.871 15.364-35.223 21.637-6.147 3.122-12.949 4.739-19.843 4.732l-154.047-.144c-42.393-.04-83.497-15.518-114.756-44.152-13.442-12.311-25.564-26.039-36.131-40.947v-47.392c-.058-.54-.088-1.088-.088-1.644l.088-93.92v-25.908c0-.291.009-.581.025-.868l.158-169.294c.008-8.284 6.73-14.993 15.014-14.985l330 .308c8.284.008 14.994 6.73 14.986 15.014z" fill="#2b4d66"/><path d="m110 444.681c-5.183-2.673-10.248-5.562-15.182-8.658l-53.478-274.676c-.425-2.181.999-4.293 3.18-4.717l65.48-12.748z" fill="#94d1fe"/><path d="m373.155 95.152-.363 384.716c-35.017 17.983-74.719 28.132-116.792 28.132-67.763 0-129.377-26.328-175.17-69.311l.325-343.81c.002-2.761 2.243-4.998 5.005-4.995l282 .264c2.761.002 4.998 2.243 4.995 5.004z" fill="#e9f3fe"/><path d="m372.805 470.355-.013 13.513c-35.017 17.983-74.719 28.132-116.792 28.132-67.763 0-129.377-26.328-175.17-69.311l.325-347.81c.002-2.761 2.243-4.998 5.005-4.995l19.477.018-.208 222.365c-.089 95.106 75.747 173.66 170.844 175.2 1.406.023 2.815.034 4.227.034 32.544 0 63.669-6.073 92.305-17.146z" fill="#c8e2fd"/><path d="m314.5 260.009h-175c-4.142 0-7.5-3.358-7.5-7.5s3.358-7.5 7.5-7.5h175c4.142 0 7.5 3.358 7.5 7.5 0 4.143-3.358 7.5-7.5 7.5zm-175-29.999h175c4.142 0 7.5-3.358 7.5-7.5s-3.358-7.5-7.5-7.5h-175c-4.142 0-7.5 3.358-7.5 7.5s3.358 7.5 7.5 7.5zm126 44.999h-77c-4.142 0-7.5 3.358-7.5 7.5s3.358 7.5 7.5 7.5h77c4.142 0 7.5-3.358 7.5-7.5s-3.358-7.5-7.5-7.5zm77.286 144.994h-31.286c-4.142 0-7.5 3.358-7.5 7.5 0 4.142 3.358 7.5 7.5 7.5h31.286c4.142 0 7.5-3.358 7.5-7.5 0-4.142-3.358-7.5-7.5-7.5z" fill="#a7d0fc"/><path d="m286.667 190.012h-119.334c-5.523 0-10-4.477-10-10s4.477-10 10-10h119.333c5.523 0 10 4.477 10 10 .001 5.523-4.477 10-9.999 10zm55.833 259.99h-65c-4.142 0-7.5 3.358-7.5 7.5s3.358 7.5 7.5 7.5h65c4.142 0 7.5-3.358 7.5-7.5s-3.357-7.5-7.5-7.5z" fill="#76b6fa"/><path d="m317.058 77.221c-5.35-4.464-11.795-7.64-18.799-9.341.283-1.718.432-3.48.433-5.277l.028-29.999c.017-17.92-14.549-32.512-32.47-32.529l-80-.075h-.03c-17.906 0-32.483 14.56-32.5 32.469l-.028 29.999c-.002 1.808.145 3.582.429 5.31-18.643 4.528-32.354 19.298-32.373 36.782-.012 10.465 4.781 20.235 13.495 27.507 8.318 6.941 19.285 10.769 30.88 10.778l119.975.093h.042c24.47-.001 44.39-17.134 44.413-38.21.011-10.467-4.781-20.236-13.495-27.507zm-148.337-44.739c.004-4.664 1.832-9.053 5.146-12.361 3.31-3.304 7.696-5.122 12.354-5.122h.017l80 .075c9.649.009 17.492 7.867 17.483 17.516l-.028 29.999c-.001 1.323-.15 2.612-.431 3.851l-114.143-.089c-.282-1.256-.427-2.553-.426-3.87zm117.42 95.456h-.031l-119.975-.093c-8.094-.006-15.651-2.597-21.28-7.295-5.234-4.368-8.113-10.041-8.106-15.975.012-11.169 10.038-20.515 23.347-22.729 5.922 7.966 15.4 13.141 26.067 13.15l80 .075h.03c10.663 0 20.145-5.163 26.075-13.122 5.744.967 10.995 3.294 15.18 6.787 5.233 4.367 8.112 10.04 8.105 15.974-.014 12.813-13.205 23.229-29.412 23.228z" fill="#4a82ae"/><path d="m231.193 55.021-.028 29.999c-.008 8.284-6.73 14.993-15.014 14.985l-60-.056c-8.284-.007-14.994-6.729-14.986-15.013l.028-29.999c.008-8.284 6.73-14.993 15.014-14.986l60 .056c8.284.008 14.993 6.73 14.986 15.014z" fill="#3493f8"/><path d="m312.192 55.097-.028 29.999c-.008 8.284-6.73 14.993-15.014 14.985l-76-.071c-16.568-.016-29.987-13.459-29.972-30.027.016-16.568 13.459-29.986 30.028-29.971l76 .071c8.285.008 14.994 6.73 14.986 15.014z" fill="#55a4f9"/><path d="m292 70.007c-.005 5.523-4.487 9.995-10.009 9.99-5.523-.005-9.996-4.486-9.991-10.009s4.487-9.996 10.009-9.99c5.523.005 9.996 4.486 9.991 10.009zm-120.812-10.042c-5.523-.005-10.004 4.468-10.009 9.99s4.468 10.004 9.991 10.009 10.004-4.468 10.009-9.99-4.468-10.004-9.991-10.009z" fill="#2b4d66"/><path d="m222 413.004c0 41.972-34.026 75.997-76 75.997s-76-34.025-76-75.997 34.026-75.997 76-75.997 76 34.025 76 75.997z" fill="#5ca33b"/><path d="m222 413.004c0 15.23-4.48 29.413-12.194 41.304-11.892 7.714-26.075 12.194-41.306 12.194-41.974 0-76-34.025-76-75.997 0-15.23 4.48-29.413 12.194-41.304 11.892-7.714 26.075-12.194 41.306-12.194 41.974 0 76 34.025 76 75.997z" fill="#6dc54a"/><path d="m211.321 365.194-61.414 71.512c-2.665 3.033-6.632 3.694-9.501 3.725-.066.001-.135.002-.204.002-2.444 0-6.738-.483-9.526-3.518l-26.258-29.262c-2.767-3.083-2.51-7.825.573-10.59 3.082-2.768 7.824-2.511 10.591.573l24.581 27.394 59.779-69.609c2.696-3.141 7.432-3.503 10.576-.803 3.142 2.699 3.503 7.434.803 10.576z" fill="#2b4d66"/><path d="m251.291 408.605-35.355 35.354c-3.905 3.905-10.237 3.905-14.142 0-3.905-3.905-3.905-10.236 0-14.142l35.355-35.354c3.905-3.905 10.237-3.905 14.142 0s3.905 10.237 0 14.142z" fill="#4a82ae"/><path d="m495.015 183.072c-28.423 44.974-63.914 89.568-105.839 131.491-41.925 41.924-99.908-16.057-57.983-57.98s86.521-77.413 131.496-105.835c9.178-5.8 21.203-4.498 28.884 3.176.044.044.089.088.133.132s.089.089.133.133c7.674 7.681 8.977 19.705 3.176 28.883z" fill="#3493f8"/><path d="m498.451 167.813c-5.193-.626-10.594.486-15.26 3.435-44.976 28.422-89.572 63.912-131.496 105.835-1.079 1.079-17.664-23.325-16.242-24.726 40.68-40.086 83.782-74.146 127.238-101.608 9.178-5.8 21.203-4.498 28.884 3.176.044.044.089.088.133.132s.089.089.133.133c3.771 3.775 6.004 8.601 6.61 13.623z" fill="#1380e2"/><path d="m505.849 197.895-77.782 77.779c-8.201 8.201-21.497 8.201-29.698 0s-8.201-21.497 0-29.697l77.782-77.779c8.201-8.2 21.497-8.2 29.698 0 8.201 8.201 8.201 21.497 0 29.697z" fill="#86befb"/><path d="m356.769 273.672s-109.267 150.81-114.509 150.141c-4.964-.633-9.728-2.858-13.464-6.591l-.266-.266c-7.673-7.681-8.976-19.705-3.176-28.883 28.422-44.974 63.914-89.568 105.839-131.491 1.416-1.416 2.836-2.825 4.258-4.227z" fill="#d63030"/><path d="m393.404 310.305c-1.402 1.423-2.811 2.842-4.227 4.258-41.925 41.923-86.521 77.414-131.496 105.835-4.714 2.979-10.179 4.084-15.42 3.415-.124-4.572 1.071-9.201 3.647-13.278 28.833-45.624 64.838-90.863 107.369-133.393 1.162-1.162 2.326-2.319 3.493-3.471z" fill="#fb5858"/></g></svg>