<svg xmlns="http://www.w3.org/2000/svg" viewBox="0 0 71.8 71.8"><defs><style>.cls-1{fill:#00b69f;}</style></defs><g id="Layer_2" data-name="Layer 2"><g id="Layer_1-2" data-name="Layer 1"><path class="cls-1" d="M46.6,19.1H25.2A6.2,6.2,0,0,0,19,25.3V46.7a6.2,6.2,0,0,0,6.19,6.2H46.6a6.21,6.21,0,0,0,6.2-6.2V25.3a6.21,6.21,0,0,0-6.2-6.2Zm-10.7,28A11.12,11.12,0,1,1,47,36,11.13,11.13,0,0,1,35.9,47.12ZM47.39,27.17A2.63,2.63,0,1,1,50,24.54a2.63,2.63,0,0,1-2.63,2.63Z"/><path class="cls-1" d="M35.9,29.58A6.42,6.42,0,1,0,42.33,36a6.43,6.43,0,0,0-6.43-6.42Z"/><path class="cls-1" d="M35.9,0A35.9,35.9,0,1,0,71.8,35.9,35.9,35.9,0,0,0,35.9,0ZM57.5,46.7A10.91,10.91,0,0,1,46.6,57.6H25.2A10.91,10.91,0,0,1,14.3,46.7V25.3A10.91,10.91,0,0,1,25.2,14.4H46.6A10.91,10.91,0,0,1,57.5,25.3Z"/></g></g></svg>