<?xml version="1.0" encoding="iso-8859-1"?>
<!-- Generator: Adobe Illustrator 19.0.0, SVG Export Plug-In . SVG Version: 6.00 Build 0)  -->
<svg version="1.1" id="Capa_1" xmlns="http://www.w3.org/2000/svg" xmlns:xlink="http://www.w3.org/1999/xlink" x="0px" y="0px"
	 viewBox="0 0 512 512" style="enable-background:new 0 0 512 512;" xml:space="preserve">
<circle style="fill:#FFD00D;" cx="256" cy="256" r="245"/>
<path style="fill:#FFFFFF;" d="M79.53,425.935h264.284c8.035,0,14.883-5.109,17.517-12.242c2.634,7.133,9.481,12.242,17.518,12.242
	H506.16c3.226,0,5.84-2.615,5.84-5.84V279.783c0-3.225-2.614-5.84-5.84-5.84H378.849c-8.036,0-14.884,5.108-17.518,12.242
	c-2.634-7.134-9.481-12.242-17.517-12.242H65.84c-3.225,0-5.84,2.615-5.84,5.84v123.231C66.04,411.055,72.567,418.706,79.53,425.935
	z"/>
<path style="fill:#159E97;" d="M60,279.783v123.231c6.04,8.04,12.567,15.691,19.53,22.921H195V273.943H65.84
	C62.614,273.943,60,276.559,60,279.783z"/>
<path style="fill:#0F9390;" d="M95.84,273.943h-30c-3.225,0-5.84,2.615-5.84,5.84v123.231c6.04,8.04,12.567,15.691,19.53,22.921
	h16.31c-3.225,0-5.84-2.614-5.84-5.84V279.783C90,276.559,92.614,273.943,95.84,273.943z"/>
<path style="fill:#445EA0;" d="M506.16,273.943H378.849c-8.036,0-14.884,5.108-17.518,12.242v127.508
	c2.634,7.133,9.481,12.242,17.518,12.242H506.16c3.226,0,5.84-2.615,5.84-5.84V279.783C512,276.559,509.386,273.943,506.16,273.943z
	"/>
<path style="fill:#2E4C89;" d="M377,413.693V286.185c2.634-7.134,9.481-12.242,17.518-12.242h-15.669
	c-8.036,0-14.884,5.108-17.518,12.242v127.508c2.634,7.133,9.481,12.242,17.518,12.242h15.669
	C386.481,425.935,379.634,420.826,377,413.693z"/>
<path style="fill:#FFFFFF;" d="M505.44,412.065c0,1.65-1.351,3-3,3h-128c-1.649,0-3-1.35-3-3v-54c0-1.65,1.351-3,3-3h128
	c1.649,0,3,1.35,3,3V412.065z"/>
<path d="M380.645,404.98c0,1.65,1.35,3,3,3h4.461c1.65,0,3-1.35,3-3v-38.015c0-1.65-1.35-3-3-3h-4.461c-1.65,0-3,1.35-3,3V404.98z"
	/>
<path d="M435.041,404.98c0,1.65,1.35,3,3,3h4.461c1.65,0,3-1.35,3-3v-38.015c0-1.65-1.35-3-3-3h-4.461c-1.65,0-3,1.35-3,3V404.98z"
	/>
<path d="M467.469,404.98c0,1.65,1.35,3,3,3h4.459c1.65,0,3-1.35,3-3v-38.015c0-1.65-1.35-3-3-3h-4.459c-1.65,0-3,1.35-3,3V404.98z"
	/>
<path d="M395.815,404.98c0,1.65,1.35,3,3,3h9.689c1.65,0,3-1.35,3-3v-38.015c0-1.65-1.35-3-3-3h-9.689c-1.65,0-3,1.35-3,3V404.98z"
	/>
<path d="M416.734,404.98c0,1.65,1.177,3,2.615,3s2.615-1.35,2.615-3v-38.015c0-1.65-1.177-3-2.615-3c-1.439,0-2.615,1.35-2.615,3
	V404.98z"/>
<path d="M426.148,404.98c0,1.65,1.177,3,2.615,3s2.615-1.35,2.615-3v-38.015c0-1.65-1.177-3-2.615-3c-1.439,0-2.615,1.35-2.615,3
	V404.98z"/>
<path d="M449.164,404.98c0,1.65,1.177,3,2.614,3s2.614-1.35,2.614-3v-38.015c0-1.65-1.177-3-2.614-3s-2.614,1.35-2.614,3V404.98z"/>
<path d="M458.578,404.98c0,1.65,1.177,3,2.615,3s2.615-1.35,2.615-3v-38.015c0-1.65-1.177-3-2.615-3s-2.615,1.35-2.615,3V404.98z"/>
<path d="M481.59,404.98c0,1.65,1.178,3,2.616,3s2.616-1.35,2.616-3v-38.015c0-1.65-1.178-3-2.616-3s-2.616,1.35-2.616,3V404.98z"/>
<path d="M493.621,363.966c-1.439,0-2.615,1.35-2.615,3v38.015c0,1.65,1.177,3,2.615,3s2.615-1.35,2.615-3v-38.015
	C496.236,365.316,495.06,363.966,493.621,363.966z"/>
<path style="fill:#FFFFFF;" d="M499.236,313.066c0,2.75-2.25,5-5,5h-75.592c-2.75,0-5-2.25-5-5v-14.209c0-2.75,2.25-5,5-5h75.592
	c2.75,0,5,2.25,5,5V313.066z"/>
<path id="SVGCleanerId_0" style="fill:#FFFFFF;" d="M405.236,313.066c0,2.75-2.25,5-5,5h-17.592c-2.75,0-5-2.25-5-5v-14.209
	c0-2.75,2.25-5,5-5h17.592c2.75,0,5,2.25,5,5V313.066z"/>
<g>
	<path id="SVGCleanerId_0_1_" style="fill:#FFFFFF;" d="M405.236,313.066c0,2.75-2.25,5-5,5h-17.592c-2.75,0-5-2.25-5-5v-14.209
		c0-2.75,2.25-5,5-5h17.592c2.75,0,5,2.25,5,5V313.066z"/>
</g>
<path style="fill:#FFFFFF;" d="M499.236,337.273c0,2.75-2.25,5-5,5H382.645c-2.75,0-5-2.25-5-5v-6.505c0-2.75,2.25-5,5-5h111.592
	c2.75,0,5,2.25,5,5v6.505H499.236z"/>
<g>
	<path style="fill:#1A2B63;" d="M280.126,313.651h-67.667c-2.762,0-5-2.239-5-5s2.238-5,5-5h67.667c2.762,0,5,2.239,5,5
		C285.126,311.413,282.888,313.651,280.126,313.651z"/>
	<path style="fill:#1A2B63;" d="M280.126,332.089h-67.667c-2.762,0-5-2.239-5-5s2.238-5,5-5h67.667c2.762,0,5,2.239,5,5
		C285.126,329.85,282.888,332.089,280.126,332.089z"/>
	<path style="fill:#1A2B63;" d="M280.126,350.527h-67.667c-2.762,0-5-2.239-5-5s2.238-5,5-5h67.667c2.762,0,5,2.239,5,5
		C285.126,348.289,282.888,350.527,280.126,350.527z"/>
</g>
<path style="fill:#159E97;" d="M336.576,388.251c0,2.75-2.25,5-5,5H212.084c-2.75,0-5-2.25-5-5v-14.946c0-2.75,2.25-5,5-5h119.492
	c2.75,0,5,2.25,5,5V388.251z"/>
<path style="fill:#0F9390;" d="M238,388.251v-14.946c0-2.75,2.25-5,5-5h-30.916c-2.75,0-5,2.25-5,5v14.946c0,2.75,2.25,5,5,5H243
	C240.25,393.251,238,391.001,238,388.251z"/>
<path style="fill:#3EB7FF;" d="M336.576,345.951c0,2.75-2.25,5-5,5h-33.385c-2.75,0-5-2.25-5-5v-38.808c0-2.75,2.25-5,5-5h33.385
	c2.75,0,5,2.25,5,5V345.951z"/>
<path style="fill:#2DA1DC;" d="M308.615,345.951v-38.808c0-2.75,2.25-5,5-5h-15.424c-2.75,0-5,2.25-5,5v38.808c0,2.75,2.25,5,5,5
	h15.424C310.865,350.951,308.615,348.701,308.615,345.951z"/>
<circle style="fill:#FFFFFF;" cx="128.14" cy="347.92" r="51.859"/>
<path d="M172.659,341.817l7.284,3.711c-0.612-13.463-6.357-25.588-15.325-34.464l-1.702,10.753l-24.311-15.997l8.505-6.178
	c-5.874-2.31-12.273-3.579-18.968-3.579c-6.694,0-13.093,1.268-18.968,3.579l8.505,6.178l-24.064,15.835L91.9,310.834
	c-9.136,8.928-14.984,21.202-15.566,34.841l7.33-3.734l10.107,32.025l-11.491-1.82c5.84,11.035,15.546,19.707,27.314,24.217
	l-1.209-7.639h39.47l-1.213,7.655c11.778-4.499,21.493-13.167,27.343-24.201l-11.482,1.818L172.659,341.817z M159.126,374.532
	l-7.035,1.114l-11.854-11.853l5.809-17.877l16.248-9.381l7.602,3.873L159.126,374.532z M162.39,325.134l-1.362,8.6l-15.632,9.025
	l-15.724-11.424v-19.023l6.289-4.569L162.39,325.134z M120.323,307.742l6.289,4.569v19.023l-15.662,11.379l-15.409-8.896
	l-1.401-8.846L120.323,307.742z M86.428,340.533l7.769-3.958l16.009,9.242l5.785,17.804l-11.969,11.969l-6.873-1.088L86.428,340.533
	z M107.9,385.665l-1.316-8.311l11.731-11.732h19.424l11.892,11.892l-1.29,8.151H107.9z"/>
<path style="fill:#FFFFFF;" d="M452,232.217V108.986c-6.04-8.04-12.567-15.692-19.531-22.921h-113.62
	c-8.036,0-14.884,5.108-17.518,12.242c-2.634-7.134-9.481-12.242-17.517-12.242H5.84c-3.225,0-5.84,2.615-5.84,5.84v140.313
	c0,3.226,2.614,5.84,5.84,5.84h277.975c8.035,0,14.883-5.109,17.517-12.242c2.634,7.133,9.481,12.242,17.518,12.242h127.31
	C449.386,238.057,452,235.442,452,232.217z"/>
<path style="fill:#159E97;" d="M135,86.064H5.84c-3.225,0-5.84,2.615-5.84,5.84v140.313c0,3.226,2.614,5.84,5.84,5.84H135V86.064z"
	/>
<path style="fill:#0F9390;" d="M30,232.217V91.904c0-3.225,2.614-5.84,5.84-5.84h-30c-3.225,0-5.84,2.615-5.84,5.84v140.313
	c0,3.226,2.614,5.84,5.84,5.84h30C32.614,238.057,30,235.442,30,232.217z"/>
<path style="fill:#445EA0;" d="M452,232.217V108.986c-6.04-8.04-12.567-15.692-19.531-22.921h-113.62
	c-8.036,0-14.884,5.108-17.518,12.242v127.508c2.634,7.133,9.481,12.242,17.518,12.242H446.16
	C449.386,238.057,452,235.442,452,232.217z"/>
<path style="fill:#2E4C89;" d="M317,225.814V98.307c2.634-7.134,9.481-12.242,17.518-12.242h-15.669
	c-8.036,0-14.884,5.108-17.518,12.242v127.508c2.634,7.133,9.481,12.242,17.518,12.242h15.669
	C326.481,238.057,319.634,232.947,317,225.814z"/>
<path style="fill:#FFFFFF;" d="M445.44,224.186c0,1.65-1.351,3-3,3h-128c-1.649,0-3-1.35-3-3v-54c0-1.65,1.351-3,3-3h128
	c1.649,0,3,1.35,3,3V224.186z"/>
<path d="M320.645,217.102c0,1.65,1.35,3,3,3h4.461c1.65,0,3-1.35,3-3v-38.015c0-1.65-1.35-3-3-3h-4.461c-1.65,0-3,1.35-3,3V217.102z
	"/>
<path d="M375.041,217.102c0,1.65,1.35,3,3,3h4.461c1.65,0,3-1.35,3-3v-38.015c0-1.65-1.35-3-3-3h-4.461c-1.65,0-3,1.35-3,3V217.102z
	"/>
<path d="M407.469,217.102c0,1.65,1.35,3,3,3h4.459c1.65,0,3-1.35,3-3v-38.015c0-1.65-1.35-3-3-3h-4.459c-1.65,0-3,1.35-3,3V217.102z
	"/>
<path d="M335.815,217.102c0,1.65,1.35,3,3,3h9.689c1.65,0,3-1.35,3-3v-38.015c0-1.65-1.35-3-3-3h-9.689c-1.65,0-3,1.35-3,3V217.102z
	"/>
<path d="M356.734,217.102c0,1.65,1.177,3,2.615,3s2.615-1.35,2.615-3v-38.015c0-1.65-1.177-3-2.615-3c-1.439,0-2.615,1.35-2.615,3
	V217.102z"/>
<path d="M366.148,217.102c0,1.65,1.177,3,2.615,3s2.615-1.35,2.615-3v-38.015c0-1.65-1.177-3-2.615-3c-1.439,0-2.615,1.35-2.615,3
	V217.102z"/>
<path d="M389.164,217.102c0,1.65,1.177,3,2.614,3s2.614-1.35,2.614-3v-38.015c0-1.65-1.177-3-2.614-3s-2.614,1.35-2.614,3V217.102z"
	/>
<path d="M398.578,217.102c0,1.65,1.177,3,2.615,3s2.615-1.35,2.615-3v-38.015c0-1.65-1.177-3-2.615-3s-2.615,1.35-2.615,3V217.102z"
	/>
<path d="M421.59,217.102c0,1.65,1.178,3,2.616,3s2.616-1.35,2.616-3v-38.015c0-1.65-1.178-3-2.616-3s-2.616,1.35-2.616,3V217.102z"
	/>
<path d="M433.621,176.088c-1.439,0-2.615,1.35-2.615,3v38.015c0,1.65,1.177,3,2.615,3s2.615-1.35,2.615-3v-38.015
	C436.236,177.438,435.06,176.088,433.621,176.088z"/>
<path style="fill:#FFFFFF;" d="M439.236,125.188c0,2.75-2.25,5-5,5h-75.592c-2.75,0-5-2.25-5-5V110.98c0-2.75,2.25-5,5-5h75.592
	c2.75,0,5,2.25,5,5V125.188z"/>
<g>
	<path style="fill:#EEF6FF;" d="M369,125.188V110.98c0-2.75,2.25-5,5-5h-15.355c-2.75,0-5,2.25-5,5v14.208c0,2.75,2.25,5,5,5H374
		C371.25,130.188,369,127.938,369,125.188z"/>
	<path style="fill:#EEF6FF;" d="M429,313.066v-14.208c0-2.75,2.25-5,5-5h-15.355c-2.75,0-5,2.25-5,5v14.208c0,2.75,2.25,5,5,5H434
		C431.25,318.066,429,315.816,429,313.066z"/>
</g>
<path style="fill:#FFFFFF;" d="M345.236,125.188c0,2.75-2.25,5-5,5h-17.592c-2.75,0-5-2.25-5-5V110.98c0-2.75,2.25-5,5-5h17.592
	c2.75,0,5,2.25,5,5V125.188z"/>
<path style="fill:#EEF6FF;" d="M327,125.188V110.98c0-2.75,2.25-5,5-5h-9.355c-2.75,0-5,2.25-5,5v14.208c0,2.75,2.25,5,5,5H332
	C329.25,130.188,327,127.938,327,125.188z"/>
<path style="fill:#FFFFFF;" d="M439.236,149.395c0,2.75-2.25,5-5,5H322.645c-2.75,0-5-2.25-5-5v-6.506c0-2.75,2.25-5,5-5h111.592
	c2.75,0,5,2.25,5,5v6.506H439.236z"/>
<g>
	<path style="fill:#EEF6FF;" d="M327.645,149.395v-6.506c0-2.75,2.25-5,5-5h-10c-2.75,0-5,2.25-5,5v6.506c0,2.75,2.25,5,5,5h10
		C329.895,154.395,327.645,152.145,327.645,149.395z"/>
	<path style="fill:#EEF6FF;" d="M387.645,337.273v-6.506c0-2.75,2.25-5,5-5h-10c-2.75,0-5,2.25-5,5v6.506c0,2.75,2.25,5,5,5h10
		C389.895,342.273,387.645,340.023,387.645,337.273z"/>
</g>
<g>
	<path style="fill:#1A2B63;" d="M220.126,125.772h-67.667c-2.762,0-5-2.239-5-5s2.238-5,5-5h67.667c2.762,0,5,2.239,5,5
		C225.126,123.534,222.888,125.772,220.126,125.772z"/>
	<path style="fill:#1A2B63;" d="M220.126,144.211h-67.667c-2.762,0-5-2.239-5-5s2.238-5,5-5h67.667c2.762,0,5,2.239,5,5
		S222.888,144.211,220.126,144.211z"/>
	<path style="fill:#1A2B63;" d="M220.126,162.649h-67.667c-2.762,0-5-2.239-5-5s2.238-5,5-5h67.667c2.762,0,5,2.239,5,5
		S222.888,162.649,220.126,162.649z"/>
</g>
<path style="fill:#159E97;" d="M276.576,200.372c0,2.75-2.25,5-5,5H152.084c-2.75,0-5-2.25-5-5v-14.946c0-2.75,2.25-5,5-5h119.492
	c2.75,0,5,2.25,5,5V200.372z"/>
<path style="fill:#0F9390;" d="M178,200.372v-14.946c0-2.75,2.25-5,5-5h-30.916c-2.75,0-5,2.25-5,5v14.946c0,2.75,2.25,5,5,5H183
	C180.25,205.372,178,203.122,178,200.372z"/>
<path style="fill:#3EB7FF;" d="M276.576,158.072c0,2.75-2.25,5-5,5h-33.385c-2.75,0-5-2.25-5-5v-38.808c0-2.75,2.25-5,5-5h33.385
	c2.75,0,5,2.25,5,5V158.072z"/>
<path style="fill:#2DA1DC;" d="M248.615,158.072v-38.808c0-2.75,2.25-5,5-5h-15.424c-2.75,0-5,2.25-5,5v38.808c0,2.75,2.25,5,5,5
	h15.424C250.865,163.072,248.615,160.822,248.615,158.072z"/>
<circle style="fill:#FFFFFF;" cx="68.14" cy="160.04" r="51.859"/>
<path d="M112.66,153.938l7.284,3.711c-0.612-13.463-6.356-25.588-15.325-34.464l-1.702,10.753l-24.312-15.997l8.505-6.178
	c-5.874-2.31-12.272-3.579-18.968-3.579c-6.694,0-13.093,1.269-18.968,3.579l8.505,6.178l-24.064,15.835l-1.714-10.821
	c-9.136,8.928-14.984,21.202-15.566,34.841l7.33-3.734l10.107,32.025l-11.491-1.82c5.84,11.035,15.546,19.707,27.314,24.217
	l-1.209-7.639h39.47l-1.213,7.655c11.778-4.499,21.493-13.168,27.343-24.201l-11.482,1.818L112.66,153.938z M99.127,186.653
	l-7.035,1.114l-11.854-11.853l5.809-17.877l16.248-9.381l7.602,3.873L99.127,186.653z M102.391,137.255l-1.362,8.6l-15.632,9.025
	l-15.724-11.424v-19.023l6.289-4.569L102.391,137.255z M60.324,119.863l6.289,4.569v19.023l-15.662,11.379l-15.409-8.896
	l-1.401-8.846L60.324,119.863z M26.429,152.654l7.769-3.958l16.009,9.242l5.785,17.804l-11.97,11.968l-6.873-1.088L26.429,152.654z
	 M47.901,197.786l-1.316-8.311l11.731-11.732H77.74l11.892,11.892l-1.29,8.151H47.901z"/>
<path style="fill:#EEF6FF;" d="M387,313.066v-14.208c0-2.75,2.25-5,5-5h-9.355c-2.75,0-5,2.25-5,5v14.208c0,2.75,2.25,5,5,5H392
	C389.25,318.066,387,315.816,387,313.066z"/>
<g>
</g>
<g>
</g>
<g>
</g>
<g>
</g>
<g>
</g>
<g>
</g>
<g>
</g>
<g>
</g>
<g>
</g>
<g>
</g>
<g>
</g>
<g>
</g>
<g>
</g>
<g>
</g>
<g>
</g>
</svg>
