<svg id="Capa_1" enable-background="new 0 0 512 512" height="512" viewBox="0 0 512 512" width="512" xmlns="http://www.w3.org/2000/svg"><g><path d="m24.067 477.367v-126.967h154.622v-66.267h154.622v98.4h154.622v94.834z" fill="#887575"/><g fill="#806666"><path d="m333.311 355.4v-71.267h-23v65.267c0 3.314 2.686 6 6 6z"/><path d="m464.933 382.533h23v94.834h-23z"/></g><path d="m347.4 289.133h-182.8c-4.418 0-8-3.582-8-8v-17.133c0-4.418 3.582-8 8-8h182.8c4.418 0 8 3.582 8 8v17.133c0 4.419-3.582 8-8 8z" fill="#fdbe40"/><path d="m496.5 504.5h-481c-4.418 0-8-3.582-8-8v-17.133c0-4.418 3.582-8 8-8h481c4.418 0 8 3.582 8 8v17.133c0 4.418-3.582 8-8 8z" fill="#fdbe40"/><path d="m339.311 388.533h157.189c4.418 0 8-3.582 8-8v-17.133c0-4.418-3.582-8-8-8h-163.189v27.133c0 3.314 2.686 6 6 6z" fill="#fdbe40"/><path d="m178.689 322.267h-163.189c-4.418 0-8 3.582-8 8v17.133c0 4.418 3.582 8 8 8h157.189c3.314 0 6-2.686 6-6z" fill="#fdbe40"/><path d="m239.433 165.5h33.133v80.565h-33.133z" fill="#f58c31"/><path d="m322.267 123.467c0 36.598-29.669 66.267-66.267 66.267s-66.267-29.669-66.267-66.267v-87.834h132.533v87.834z" fill="#fdbe40"/><g fill="#faa83c"><path d="m496.5 355.4h-23c4.418 0 8 3.582 8 8v17.133c0 4.418-3.582 8-8 8h23c4.418 0 8-3.582 8-8v-17.133c0-4.418-3.582-8-8-8z"/><path d="m496.5 471.367h-23c4.418 0 8 3.582 8 8v17.133c0 4.418-3.582 8-8 8h23c4.418 0 8-3.582 8-8v-17.133c0-4.419-3.582-8-8-8z"/><path d="m347.4 256h-23c4.418 0 8 3.582 8 8v17.133c0 4.418-3.582 8-8 8h23c4.418 0 8-3.582 8-8v-17.133c0-4.418-3.582-8-8-8z"/><path d="m155.689 322.267v27.133c0 3.314-2.686 6-6 6h23c3.314 0 6-2.686 6-6v-27.133z"/><path d="m299.267 35.633v87.833c0 32.673-23.654 59.804-54.767 65.252 3.737.654 7.575 1.015 11.5 1.015 36.598 0 66.267-29.669 66.267-66.267v-87.833z"/></g><path d="m322.55 40.633h-133.1c-4.418 0-8-3.582-8-8v-17.133c0-4.418 3.582-8 8-8h133.1c4.418 0 8 3.582 8 8v17.133c0 4.419-3.582 8-8 8z" fill="#d0e2ed"/><path d="m322.55 7.5h-23c4.418 0 8 3.582 8 8v17.133c0 4.418-3.582 8-8 8h23c4.418 0 8-3.582 8-8v-17.133c0-4.418-3.582-8-8-8z" fill="#aabfcf"/><path d="m314.267 256h-116.534c-4.418 0-8-3.582-8-8v-17.133c0-4.418 3.582-8 8-8h116.533c4.418 0 8 3.582 8 8v17.133c.001 4.418-3.581 8-7.999 8z" fill="#394d5c"/><path d="m314.267 222.867h-23c4.418 0 8 3.582 8 8v17.133c0 4.418-3.582 8-8 8h23c4.418 0 8-3.582 8-8v-17.133c0-4.419-3.582-8-8-8z" fill="#2c4252"/></g><g><path d="m496.5 396.033c8.547 0 15.5-6.953 15.5-15.5v-17.133c0-8.547-6.953-15.5-15.5-15.5h-155.689v-51.267h6.589c8.547 0 15.5-6.953 15.5-15.5v-17.133c0-8.547-6.953-15.5-15.5-15.5h-17.659c.005-.167.025-.331.025-.5v-17.133c0-8.547-6.953-15.5-15.5-15.5h-34.2v-22.186c26.622-9.217 46.384-33.259 49.321-62.214h9.445c22.405 0 40.634-18.228 40.634-40.633v-41.417c0-8.703-7.08-15.783-15.783-15.783h-25.659c.005-.167.025-.331.025-.5v-17.134c0-8.547-6.953-15.5-15.5-15.5h-133.1c-8.547 0-15.5 6.953-15.5 15.5v17.133c0 .169.02.333.025.5h-25.659c-8.703 0-15.784 7.081-15.784 15.783v41.417c0 22.405 18.228 40.633 40.633 40.633h9.446c2.937 28.955 22.699 52.997 49.32 62.214v22.186h-34.2c-8.547 0-15.5 6.953-15.5 15.5v17.134c0 .169.02.333.025.5h-17.655c-8.547 0-15.5 6.953-15.5 15.5v17.133c0 8.547 6.953 15.5 15.5 15.5h6.589v18.133h-155.689c-8.547 0-15.5 6.953-15.5 15.5v17.134c0 8.547 6.953 15.5 15.5 15.5h1.067v100.967h-1.067c-8.547 0-15.5 6.953-15.5 15.5v17.133c0 8.547 6.953 15.5 15.5 15.5h59.833c4.142 0 7.5-3.358 7.5-7.5s-3.358-7.5-7.5-7.5h-59.833c-.276 0-.5-.224-.5-.5v-17.133c0-.276.224-.5.5-.5h8.567 463.867 8.566c.275 0 .5.224.5.5v17.133c0 .276-.225.5-.5.5h-391.167c-4.142 0-7.5 3.358-7.5 7.5s3.358 7.5 7.5 7.5h391.167c8.547 0 15.5-6.953 15.5-15.5v-17.133c0-8.547-6.953-15.5-15.5-15.5h-1.066v-67.834zm-132.033-347.116v41.417c0 14.134-11.499 25.633-25.634 25.633h-9.066v-67.834h33.917c.431 0 .783.352.783.784zm-175.517-16.284v-17.133c0-.276.224-.5.5-.5h133.1c.275 0 .5.224.5.5v17.133c0 .276-.225.5-.5.5h-.283-132.534-.283c-.276 0-.5-.224-.5-.5zm-41.417 57.701v-41.417c0-.432.352-.783.784-.783h33.917v67.833h-9.067c-14.135 0-25.634-11.499-25.634-25.633zm49.7 33.133v-75.334h117.533v75.333c0 32.404-26.362 58.767-58.767 58.767-32.403 0-58.766-26.362-58.766-58.766zm49.7 73.189c2.974.366 5.995.577 9.067.577 3.071 0 6.092-.211 9.066-.577v18.71h-18.133zm-49.7 51.344v-17.133c0-.276.224-.5.5-.5h41.7 33.133 41.7c.275 0 .5.224.5.5v17.133c0 .276-.225.5-.5.5h-116.533c-.276 0-.5-.224-.5-.5zm-33.133 33.133v-17.133c0-.276.224-.5.5-.5h33.133 116.533 33.134c.275 0 .5.224.5.5v17.133c0 .276-.225.5-.5.5h-14.089-154.622-14.089c-.276 0-.5-.224-.5-.5zm-149.1 66.267v-17.133c0-.276.224-.5.5-.5h155.689v18.133h-147.122-8.567c-.276 0-.5-.224-.5-.5zm465.434 116.467h-448.867v-100.967h147.122c4.142 0 7.5-3.358 7.5-7.5v-33.133-25.633h139.622v58.766 33.133c0 4.142 3.357 7.5 7.5 7.5h74.834c4.143 0 7.5-3.358 7.5-7.5s-3.357-7.5-7.5-7.5h-67.334v-18.133h155.689c.275 0 .5.224.5.5v17.133c0 .276-.225.5-.5.5h-58.355c-4.142 0-7.5 3.358-7.5 7.5s3.358 7.5 7.5 7.5h42.289z"/><path d="m256 314.767c-4.142 0-7.5 3.358-7.5 7.5v16.567c0 4.142 3.358 7.5 7.5 7.5 4.143 0 7.5-3.358 7.5-7.5v-16.567c0-4.142-3.357-7.5-7.5-7.5z"/><path d="m90.333 381.033c-4.142 0-7.5 3.358-7.5 7.5v16.567c0 4.142 3.358 7.5 7.5 7.5s7.5-3.358 7.5-7.5v-16.567c0-4.142-3.357-7.5-7.5-7.5z"/><path d="m123.467 381.033c-4.142 0-7.5 3.358-7.5 7.5v16.567c0 4.142 3.358 7.5 7.5 7.5s7.5-3.358 7.5-7.5v-16.567c0-4.142-3.358-7.5-7.5-7.5z"/><path d="m371.967 414.167c-4.143 0-7.5 3.358-7.5 7.5v16.567c0 4.142 3.357 7.5 7.5 7.5s7.5-3.358 7.5-7.5v-16.567c0-4.143-3.358-7.5-7.5-7.5z"/><path d="m405.1 414.167c-4.143 0-7.5 3.358-7.5 7.5v16.567c0 4.142 3.357 7.5 7.5 7.5s7.5-3.358 7.5-7.5v-16.567c0-4.143-3.358-7.5-7.5-7.5z"/><path d="m430.733 421.667v16.567c0 4.142 3.357 7.5 7.5 7.5s7.5-3.358 7.5-7.5v-16.567c0-4.142-3.357-7.5-7.5-7.5s-7.5 3.357-7.5 7.5z"/></g></svg>