<svg xmlns="http://www.w3.org/2000/svg" viewBox="0 0 402.03 410.05"><defs><style>.cls-1{fill:#02af8e;}.cls-2{fill:#ff9f60;}.cls-3{fill:#f78146;}.cls-4{fill:#ffc987;}.cls-5{fill:#ffaf10;}.cls-6{fill:#f28b16;}.cls-7{fill:#b7092b;}.cls-8{fill:#fff;}.cls-9{fill:#64464b;}.cls-10{fill:#333;}.cls-11{fill:#f2b675;}</style></defs><g id="Layer_2" data-name="Layer 2"><g id="Layer_1-2" data-name="Layer 1"><circle class="cls-1" cx="201.01" cy="201.01" r="201.01"/><path class="cls-2" d="M360.23,341.43h-.09v-5.74a61.28,61.28,0,0,0-44.22-58.83L268.2,263c-.86.9-1.72,1.78-2.58,2.65-8.74-7.94-9.73-24.06-9.74-33.5A109.26,109.26,0,0,0,275.8,200.3c12.35,8.22,23-17.81,23-29.18,0-8.35-4.94-13.15-12.77-12.78q.51-6,.51-11.73c0-49.06-38.39-61.27-85.77-61.27S115,97.55,115,146.61q0,5.83.53,11.83c-7.79-1-12.78,3.92-12.78,12.68,0,11.85,10.63,39.61,22.53,28a110.29,110.29,0,0,0,20.4,33c0,9.35-1.11,25.43-9.79,33.41L133.42,263l-47.67,13.9a61.28,61.28,0,0,0-44.19,58.85v5.74h-.08a4.27,4.27,0,0,0-6,3.88v8.17a8.33,8.33,0,0,0,4.9,7.6l7.35,3.35v27.18A18.38,18.38,0,0,0,66,410.05h269.6A18.38,18.38,0,0,0,354,391.67h0V364.45l7.35-3.35a8.34,8.34,0,0,0,4.91-7.6v-8.17a4.29,4.29,0,0,0-4.29-4.28,4.24,4.24,0,0,0-1.75.38Z"/><path class="cls-3" d="M243.74,293.64,268,267.46c-13.69-8.82-12-35.08-12-41.21H145.71C153.63,249,206,288,243.74,293.64Z"/><path class="cls-4" d="M286.11,158.38q.51-5.94.51-11.72c0-49.06-38.39-61.27-85.77-61.27s-85.77,12.21-85.77,61.27q0,5.82.53,11.83c-7.79-1-12.78,3.91-12.78,12.68,0,11.84,10.62,39.6,22.53,28,12.9,31.75,38,57.81,75.49,57.81,37.05,0,62-25.4,75-56.59,12.35,8.22,23-17.82,23-29.18C298.88,162.82,293.94,158,286.11,158.38Z"/><path class="cls-5" d="M268.24,263c-36.5,37.79-67.39,55.14-67.39,55.14S170,300.8,133.46,263L85.75,276.86a61.28,61.28,0,0,0-44.19,58.85v15.86l61.27,27.84v30.64H298.88V379.41l61.26-27.84V335.71a61.27,61.27,0,0,0-44.22-58.85Z"/><path class="cls-6" d="M354,354.91H341.77v-19.2a43.09,43.09,0,0,0-30.92-41.17l-40.7-11.82L273.57,271l40.69,11.81a55.41,55.41,0,0,1,39.76,53Zm-294.07,0H47.69v-19.2a55.41,55.41,0,0,1,39.77-53l40.69-11.81,3.42,11.76-40.7,11.82a43.11,43.11,0,0,0-30.93,41.17Z"/><path class="cls-7" d="M40.34,361.1l62.49,28.41V369.32L41.48,341.43a4.29,4.29,0,0,0-5.66,2.15,4.4,4.4,0,0,0-.37,1.75v8.17a8.33,8.33,0,0,0,4.9,7.6Z"/><path class="cls-7" d="M361.37,361.1l-62.49,28.41V369.32l61.35-27.89a4.28,4.28,0,0,1,6,3.9v8.17a8.34,8.34,0,0,1-4.9,7.6Z"/><path class="cls-7" d="M268.24,263c-36.5,37.79-67.39,55.14-67.39,55.14S170,300.8,133.46,263l-20.32,5.91c42.12,43.71,77,64.24,78.49,65.09l9.23,5.37L210.1,334c1.51-.88,36.37-21.41,78.49-65.09Z"/><path class="cls-8" d="M268.24,367.15H231.48a6.13,6.13,0,0,0-6.12,6.13v6.13c0,14.36,4.09,24.09,8.91,30.64h31.19c4.78-6.55,8.91-16.28,8.91-30.64v-6.13a6.15,6.15,0,0,0-6.13-6.13Z"/><path class="cls-7" d="M253.77,410.05c6.37-11.55,8.35-24.61,8.35-30.64H237.61c0,6,2,19.09,8.35,30.64Z"/><path class="cls-9" d="M286.62,42.51c-40.51,0-103.76-31.4-128.5,6.12h-6.28A43.07,43.07,0,0,0,109,91.71c0,22,6.12,54.92,6.12,54.92s6.89-31,36.76-42.88h0V104c60.25,32.68,116.4,12,116.4,12l18.38,30.63c10.34-34.84,6.13-95.35,0-104.15Z"/><rect class="cls-10" x="213.25" y="140.55" width="33.03" height="9.03" rx="4.51"/><circle class="cls-10" cx="229.96" cy="160.55" r="5.79"/><path class="cls-11" d="M154.46,148c-1,2.35,1.35,4.78,13.47,17.42,17.57,18.29,22.12,22.88,29.45,23a20.29,20.29,0,0,0,9.7-2.43c-4.06.35-7.79-.24-10.36-2.59-7.66-7,2.46-23.12-5.88-32.34-2.87-3.13-6.42-3.94-12.84-5.41C169.82,143.79,156.4,143.18,154.46,148Z"/><rect class="cls-10" x="148.68" y="141.13" width="33.03" height="9.03" rx="4.51"/><circle class="cls-10" cx="165.4" cy="161.13" r="5.79"/><path class="cls-10" d="M178.08,197.06a23,23,0,0,0,45.85,0Z"/><path class="cls-8" d="M179.55,205h43a22.86,22.86,0,0,0,1.44-7.89H178.08A22.39,22.39,0,0,0,179.55,205Z"/></g></g></svg>